{"title":"[wakaRiP]Mondaiji-tachi ga Isekai kara Kuru Sou Desu yo? [1-10] ","uid":10405395,"size":2687495705,"categoryP":"video","categoryS":"hd___tv_shows","magnet":"?xt=urn:btih:d64f998ac50b39edbfac58a8a3f260594827e1e8&amp;dn=%5BwakaRiP%5DMondaiji-tachi+ga+Isekai+kara+Kuru+Sou+Desu+yo%3F+%5B1-10%5D+&amp;tr=udp%3A%2F%2Ftracker.openbittorrent.com%3A80&amp;tr=udp%3A%2F%2Fopen.demonii.com%3A1337&amp;tr=udp%3A%2F%2Ftracker.coppersurfer.tk%3A6969&amp;tr=udp%3A%2F%2Fexodus.desync.com%3A6969","seeders":4,"leechers":1,"uploader":"wakaRIP","files":-1,"time":1403448455,"description":"&quot;Round 2, Start !&quot;\n\n;)\n\nGeneral\nFormat                                   : MPEG-4\nFormat profile                           : Base Media\nCodec ID                                 : isom\nFile size                                : 240 MiB\nDuration                                 : 23mn 44s\nOverall bit rate                         : 1 416 Kbps\nWriting application                      : Lavf54.2.100\n\nVideo\nID                                       : 2\nFormat                                   : AVC\nFormat/Info                              : Advanced Video Codec\nFormat profile                           : &lt;a class=&quot;__cf_email__&quot; href=&quot;/cdn-cgi/l/email-protection&quot; data-cfemail=&quot;eda5848a85ada1d9c3dc&quot;&gt;[email&amp;#160;protected]&lt;/a&gt;&lt;script cf-hash='f9e31' type=&quot;text/javascript&quot;&gt;\n/* &lt;![CDATA[ */!function(){try{var t=&quot;currentScript&quot;in document?document.currentScript:function(){for(var t=document.getElementsByTagName(&quot;script&quot;),e=t.length;e--;)if(t[e].getAttribute(&quot;cf-hash&quot;))return t[e]}();if(t&amp;&amp;t.previousSibling){var e,r,n,i,c=t.previousSibling,a=c.getAttribute(&quot;data-cfemail&quot;);if(a){for(e=&quot;&quot;,r=parseInt(a.substr(0,2),16),n=2;a.length-n;n+=2)i=parseInt(a.substr(n,2),16)^r,e+=String.fromCharCode(i);e=document.createTextNode(e),c.parentNode.replaceChild(e,c)}}}catch(u){}}();/* ]]&gt; */&lt;/script&gt;\nFormat settings, CABAC                   : Yes\nFormat settings, ReFrames                : 9 frames\nCodec ID                                 : avc1\nCodec ID/Info                            : Advanced Video Coding\nDuration                                 : 23mn 44s\nBit rate                                 : 1 250 Kbps\nWidth                                    : 1 280 pixels\nHeight                                   : 720 pixels\nDisplay aspect ratio                     : 16:9\nFrame rate mode                          : Constant\nFrame rate                               : 23.976 fps\nColor space                              : YUV\nChroma subsampling                       : 4:2:0\nBit depth                                : 8 bits\nScan type                                : Progressive\nBits/(Pixel*Frame)                       : 0.057\nStream size                              : 213 MiB (89%)\nWriting library                          : x264 core 129 r2230 1cffe9f\n\n\nAudio\nID                                       : 1\nFormat                                   : AAC\nFormat/Info                              : Advanced Audio Codec\nFormat profile                           : LC\nCodec ID                                 : 40\nDuration                                 : 23mn 44s\nBit rate mode                            : Constant\nBit rate                                 : 157 Kbps\nChannel count                            : 2 channels\nChannel positions                        : Front: L R\nSampling rate                            : 48.0 KHz\nCompression mode                         : Lossy\nStream size                              : 26.6 MiB (11%)","torrent":{"xt":"urn:btih:d64f998ac50b39edbfac58a8a3f260594827e1e8","amp;dn":"%5BwakaRiP%5DMondaiji-tachi+ga+Isekai+kara+Kuru+Sou+Desu+yo%3F+%5B1-10%5D+","amp;tr":["udp%3A%2F%2Ftracker.openbittorrent.com%3A80","udp%3A%2F%2Fopen.demonii.com%3A1337","udp%3A%2F%2Ftracker.coppersurfer.tk%3A6969","udp%3A%2F%2Fexodus.desync.com%3A6969"],"infoHash":"d64f998ac50b39edbfac58a8a3f260594827e1e8","infoHashBuffer":{"type":"Buffer","data":[214,79,153,138,197,11,57,237,191,172,88,168,163,242,96,89,72,39,225,232]},"announce":[],"urlList":[]}}